<svg xmlns="http://www.w3.org/2000/svg" viewBox="0 0 1274.322 491.495">
  <defs>
    <style>
      .cls-1 {
        fill: #afafaf;
        stroke: #afafaf;
      }

      .cls-1, .cls-3 {
        stroke-miterlimit: 10;
      }

      .cls-2 {
        fill: none;
      }

      .cls-3 {
        fill: #007cbe;
        stroke: #007cbe;
      }
    </style>
  </defs>
  <g id="Group_47725" data-name="Group 47725" transform="translate(-48.598 -106.501)">
    <path id="Path_425_1_" class="cls-1" d="M40.326,6.328a27.042,27.042,0,0,0-8.235-4.794C29.633.49,26.99.428,24.04.49a18.626,18.626,0,0,0-4.855.492,28.421,28.421,0,0,0-7.867,3.565c-4.425,2.7-7.867,6.269-9.526,11.308A21.076,21.076,0,0,0,.809,26.732,42.244,42.244,0,0,0,2.1,32.079a21.809,21.809,0,0,0,3.565,6.269,21.788,21.788,0,0,0,5.47,5.408,18.758,18.758,0,0,0,9.342,3.073c.86,0,1.782.307,2.643.307A28.245,28.245,0,0,0,28.28,46.4a25.3,25.3,0,0,0,12.537-6.883,20.981,20.981,0,0,0,3.319-4.364,31.758,31.758,0,0,0,2.7-8.481,21.954,21.954,0,0,0-.86-12.107A19.1,19.1,0,0,0,40.326,6.328ZM22.811,1.166a34.454,34.454,0,0,1,7.928.553,15.87,15.87,0,0,1,5.408,2.458,16.893,16.893,0,0,1,2.028,1.414c.123.123.615.123.307.492-.184.184-.246.615-.737.492C35.84,5.9,33.75,5.959,31.784,5.222A44.7,44.7,0,0,0,23.3,3.255c-.8-.123-1.291-.492-1.229-1.414C21.889,1.166,22.5,1.227,22.811,1.166Zm2.028,20.588c-.123-1.045-.307-1.967-.492-3.011h.061v-.737c-.061-.43.123-.492.492-.43.983.246,1.905.492,2.827.737.307.123.43.246.184.553A30.151,30.151,0,0,0,25.515,22c-.123.184-.246.43-.492.307C24.716,22.246,24.839,21.939,24.839,21.754Zm2.95-3.995c-.8-.184-1.6-.492-2.52-.676a1.54,1.54,0,0,1-1.414-1.536c-.123-.983-.123-1.967-.246-3.073a68.046,68.046,0,0,1,7.744,1.967,25.035,25.035,0,0,1-2.52,3.2C28.649,17.944,28.1,17.821,27.789,17.759Zm3.134-3.933a46.96,46.96,0,0,0-6.576-1.721c-.676-.123-1.045-.43-1.045-1.106a18.2,18.2,0,0,1-.246-3.2,108.7,108.7,0,0,1,11.431,3.134,27.165,27.165,0,0,1-2.4,2.889C31.784,14.072,31.292,13.949,30.923,13.826ZM24.04,7.373a1.408,1.408,0,0,1-1.291-1.414V5.9A8.3,8.3,0,0,0,22.5,4.177c-.184-.615-.061-.615.492-.492a61.993,61.993,0,0,1,9.956,2.458c1.352.43,2.95.246,4.241.922.123.061.369,0,.369.307-.86,1.045-1.782,2.028-2.643,3.011-.061,0-.246-.123-.369-.123A88.588,88.588,0,0,0,24.04,7.373ZM2.652,15.178A20.563,20.563,0,0,1,11.5,5.345c1.844-.983,3.5-2.335,5.531-3.073,1.229-.43,2.458-.737,3.687-1.045.553-.123.737-.061.86.615.307,2.581.676,5.04,1.045,7.559.369,2.7.676,5.408,1.106,8.112.184,1.475.43,2.95.615,4.425-.061.615.184,1.106-.86.922A95.865,95.865,0,0,1,7.692,17.944a35.837,35.837,0,0,0-4.364-1.352C2.407,16.407,2.222,16.039,2.652,15.178Zm2.335,21.2A10.985,10.985,0,0,1,3.144,32.94a28.16,28.16,0,0,1-1.967-8.727,22.84,22.84,0,0,1,.737-6.76c.123-.676.369-.676.86-.43a2.715,2.715,0,0,0,.983.369A1.155,1.155,0,0,1,4.926,18.5a.739.739,0,0,1-.123.492c-.307,1.291.061,2.581.061,3.872V31.1A37.734,37.734,0,0,1,4.988,36.381Zm4.3,5.285a20.77,20.77,0,0,1-3.38-3.933A3.422,3.422,0,0,1,5.6,36.012,57.261,57.261,0,0,1,5.3,28.76c.184-3.257,0-6.576-.061-9.833-.061-.737.123-1.106.983-.737.737.307,1.536.615,2.335.86.553.184.737.43.676,1.106a25.608,25.608,0,0,0,.246,3.749,60.051,60.051,0,0,1-.061,7.436,20.862,20.862,0,0,0,.123,4.794c.246,1.782-.246,3.565-.246,5.531Zm4.609,2.52c-.061.369-.123.369-.43.246a35.254,35.254,0,0,1-3.257-1.967c-.43-.246-.307-.676-.369-1.045-.123-1.721.369-3.38.123-5.1a25.342,25.342,0,0,1-.123-5.285c.184-2.09.123-4.179.123-6.269,0-1.475-.246-2.95-.369-4.425-.061-.676.123-.86.8-.553a24.816,24.816,0,0,0,2.766.983c.553.123.676.492.676.983-.061,1.782,0,3.565,0,5.347H13.9c0,2.458-.123,4.917.061,7.375.123,2.274.061,4.486.061,6.76a16.241,16.241,0,0,1-.123,2.95Zm5.408-21.142c-.184,1.967,0,3.933-.246,5.9,0,3.749-.061,7.5.061,11.247.061,1.6-.123,3.2-.123,4.794.061.737-.061,1.229-1.106.922-.86-.307-1.721-.43-2.581-.676a.954.954,0,0,1-.8-1.045v-.061c.184-2.581.246-5.1.184-7.682-.061-4.732-.123-9.465-.184-14.135,0-1.168,0-1.168,1.168-.922.983.307,1.967.615,3.011.922.369.184.676.246.615.737Zm3.5,1.721a6.638,6.638,0,0,0-.123,1.905c0,4.3-.369,8.6-.184,12.968a44.411,44.411,0,0,0,.184,5.716c.123.8-.061,1.291-1.106,1.106a2.992,2.992,0,0,0-.737-.061c-.922,0-1.844,0-1.352-1.291-.246-.8.123-1.414.123-2.151,0-2.95,0-5.961.061-8.911.123-3.5.123-7.006.123-10.509,0-.737.184-.922.86-.615a1.987,1.987,0,0,0,1.045.184c1.106.061,1.414.676,1.106,1.659ZM26.99,29.5a8.379,8.379,0,0,0-.123,2.766c0,3.565.061,7.129-.246,10.632a14.814,14.814,0,0,0,0,2.335c.061.615-.061,1.045-.86,1.045-.492,0-.922.307-1.475.123-.8.184-.983-.184-1.045-.922-.123-1.6-.061-3.2-.061-4.794,0-1.414-.061-2.889-.061-4.3,0-3.995.307-7.928.184-11.861,0-.307-.184-.8.369-.86a1,1,0,0,1,.983.615c.676,1.352,1.352,2.766,2.09,4.118A1.316,1.316,0,0,1,26.99,29.5Zm3.687,7.99a22.363,22.363,0,0,0-.061,4.056c0,1.168-.369,2.274-.369,3.38-.061.553-.553.43-.8.492-2.335.737-2.52.737-2.274-1.659.246-3.257,0-6.576.246-9.833A26.209,26.209,0,0,0,27.3,30.85a1.2,1.2,0,0,1,.246-1.045c.86,1.414,1.659,2.889,2.52,4.179A4.76,4.76,0,0,1,30.677,37.487Zm4.3,5.9c-1.168.492-2.335,1.045-3.565,1.475-.123.061-.553.307-.492-.184a66.866,66.866,0,0,0,.246-7.867h.246c1.229,2.028,2.458,4.118,3.687,6.146.184.184.184.307-.123.43Zm11.8-21.019a36.907,36.907,0,0,1-1.168,7.375,22.742,22.742,0,0,1-1.6,4.3,22.808,22.808,0,0,1-7.436,8.42c-.43.307-.676.184-.983-.246a89.176,89.176,0,0,1-4.548-7.805c-1.352-2.335-2.766-4.732-4.118-7.068-.553-.983-.983-1.967-1.475-2.95-.369-.737.061-1.352.492-1.905,1.659-2.274,3.442-4.364,5.285-6.515,2.212-2.643,4.486-5.347,6.7-7.99.369-.43.983-.676,1.106-1.352.061-.43.492-.307.676-.061,1.905,1.782,3.872,3.565,4.917,6.084a28.4,28.4,0,0,1,2.335,7.867,6.272,6.272,0,0,0-.184,1.844Zm-3.687-1.905c-.061.8-.737.8-1.291.983-.676-.123-1.106-.307-1.045-.983.061-.8.737-.922,1.352-.922a.883.883,0,0,1,.983.737v.184Zm-4.732-8.85a1.24,1.24,0,0,1-1.352,1.106c-.553,0-.983-.184-.922-.8.061-.8.737-.983,1.414-1.106.553,0,.983.246.86.8ZM31.6,26.241c0,.737-.553.922-1.106,1.045a.815.815,0,0,1-.922-.615v-.184A1.13,1.13,0,0,1,30.8,25.38a.828.828,0,0,1,.8.86Zm.922-5.593a1.393,1.393,0,0,0-1.414,1.106c-.061.615.246.922.8.922.86,0,1.659-.553,1.659-1.106,0-.737-.553-.86-1.045-.922Zm-.615,1.291c-.123,0-.307-.123-.184-.307.307-.492.737-.492,1.291-.307-.246.615-.615.8-1.106.615Zm8.85,4.3a1.315,1.315,0,0,0-1.291,1.045,1.1,1.1,0,0,0,1.106,1.106H40.7a1.021,1.021,0,0,0,1.168-1.106c0-.737-.43-1.045-1.106-1.045Zm0,1.6a.545.545,0,0,1-.615-.369v-.061c-.061-.43.369-.553.615-.615.307-.061.492.123.615.492,0,.369-.246.492-.615.553Zm-5.285,2.889A1.276,1.276,0,0,0,34.3,32.018v.061a.71.71,0,0,0,.737.737h.184c.615-.123,1.352-.307,1.352-1.106a.971.971,0,0,0-.983-.983Zm-.184,1.536a.328.328,0,0,1-.492-.307.779.779,0,0,1,.737-.615.547.547,0,0,1,.492.307c0,.492-.43.492-.737.615Zm1.291-16.84A2.058,2.058,0,0,0,35.1,16.776c.061.615.615.676.983.737a1.24,1.24,0,0,0,1.352-1.106v-.061a.743.743,0,0,0-.737-.86c0-.061-.061-.061-.123-.061Zm.369.86c-.061.369-.369.676-.676.615-.184,0-.369,0-.369-.307.123-.307.307-.615.676-.615.246.061.43.184.369.307Zm2.766,18.437c-.922.061-1.475.307-1.475,1.106,0,.676.553.922,1.106.922a1.053,1.053,0,0,0,1.168-.983v-.123a.765.765,0,0,0-.676-.86.215.215,0,0,1-.123-.061Zm.184.922a.609.609,0,0,1-.676.492c-.246,0-.492,0-.492-.307.061-.43.369-.43.737-.553C39.712,35.336,40.019,35.336,39.9,35.644Zm-2.458-11.37a.979.979,0,0,1-1.106.86c-.553,0-.922-.184-.86-.8s.492-.86,1.045-1.045c.492.184.922.492.922.983Zm5.839-10.448a1.257,1.257,0,0,1-1.229,1.106c-.43.061-.737-.307-.86-.737,0-.307,1.106-1.168,1.475-1.106a.855.855,0,0,1,.615.737Z" transform="translate(48.604 550.36)"/>
    <path id="Path_334_1_" class="cls-1" d="M36.768,12.3c.369.123.737.246,1.045-.123.246-.307.061-.615-.061-.922C37.505,9.9,36.768,8.675,36.4,7.323,35.846,4.988,34.678,2.9,34.187.5A.583.583,0,0,0,33.634.01c-.369-.061-.492.184-.676.43-.737.922-1.291,1.967-1.967,2.95A52.763,52.763,0,0,1,25.214,9.9c-.307.246-.492.492-.307.8a.515.515,0,0,0,.737.184,13.3,13.3,0,0,1,2.7.123c.123,0,.307,0,.369.184s-.061.307-.123.492c-.307,1.352-.8,2.766-1.229,4.118-.737,2.458-1.6,4.855-2.4,7.252-.123.307-.184.737-.676.737-2.335.184-4.548.922-6.883.676a6.772,6.772,0,0,1-1.106-.123.929.929,0,0,0-1.106.615C14.7,26.682,14.151,28.28,13.66,30a48.967,48.967,0,0,0-1.844,6.515c-.123.615-.492.492-.922.492-2.151-.123-4.241-.43-6.33-.615a1.4,1.4,0,0,0-1.106.307,2.21,2.21,0,0,0-.492.737c0,.061,0,.061-.061.123a42.356,42.356,0,0,0-1.6,5.224q-.737,2.3-1.291,4.609c-.123.737.492.615.86.737a16.428,16.428,0,0,0,2.335.553c.553.123.922.184,1.106-.615A25.765,25.765,0,0,1,6.1,42.477c.246-.983.553-.8,1.229-.737,2.4.123,4.794-.123,7.129.123.492.061,1.106.123,1.229-.553a38.143,38.143,0,0,1,.86-3.81,52.864,52.864,0,0,1,2.458-7.867,1.125,1.125,0,0,1,1.168-.737,30.172,30.172,0,0,0,5.285-.43,4.981,4.981,0,0,1,1.352,0,2.521,2.521,0,0,0,.676-.061.423.423,0,0,0,.307-.492c.123-2.09.922-3.626,1.352-5.654.369-1.536,1.045-3.073,1.475-4.609.492-1.905,1.291-3.687,1.905-5.531a.622.622,0,0,1,.737-.492h.061A10.085,10.085,0,0,1,36.768,12.3Zm-4.609-.86c-.615,2.09-1.352,4.118-2.09,6.207-1.045,3.2-1.905,6.515-2.95,9.71a.5.5,0,0,1-.553.43c-2.335.123-4.671.615-7.068.307-.492-.061-.676.184-.86.615a77.532,77.532,0,0,0-2.95,9.034c-.184.922-.553,1.844-.8,2.766-.061.43-.246.492-.615.492a39.432,39.432,0,0,1-6.023-.123c-.615-.123-1.229.123-1.844-.123-.369-.123-.615.369-.737.737-.615,1.721-1.106,3.5-1.721,5.224-.123.43-.061,1.106-.615,1.106a3.917,3.917,0,0,1-2.212-.492c-.246-.123-.123-.492-.061-.737.983-2.766,1.291-5.716,2.581-8.481a4.134,4.134,0,0,1,.43-.676.875.875,0,0,1,.983-.307c2.274.307,4.548.307,6.822.737.676.123.553-.492.676-.86s.615-2.889,1.045-4.241c.615-2.09,1.291-4.118,1.905-6.207.246-.922.553-1.414,1.782-1.352,2.212,0,4.425-.43,6.637-.615a4.652,4.652,0,0,1,.922-.061c.369,0,.737-.061.922-.737.922-3.257,1.967-6.453,3.011-9.71a18.34,18.34,0,0,1,1.045-3.257c.246-.492-.061-.615-.492-.615-.676-.061-1.414-.123-2.09-.123-.553-.061-.86-.184-.307-.737a52.951,52.951,0,0,0,5.04-6.084c.307-.492.553-.922.86-1.414a.676.676,0,0,1,.615-.369c.246,0,.246.307.369.492.676,1.844,1.229,3.81,1.905,5.654.369.983.369,2.028.738,3.011.184.492.061.676-.492.615a12.337,12.337,0,0,1-2.581-.307C32.65,10.642,32.282,10.826,32.159,11.441Z" transform="translate(1286.026 141.759) rotate(18)"/>
    <g id="Group_47627" data-name="Group 47627" transform="matrix(0.899, 0.438, -0.438, 0.899, 1190.777, 106.48)">
      <path id="Path_5518" data-name="Path 5518" class="cls-2" d="M22.6,16.2A12.255,12.255,0,0,0,9.4,14.3c-4.2,1.8-6.1,5.3-7.4,9-.3.8-.7,1.1.9,1s3.3,0,5.9.1c2.7.1,14.5-.1,15.4-.2.8,0,1.7-.1,2.4-.1.3,0,.6-.4.6-.4s-.4-3.2-1.5-4.4A22.7,22.7,0,0,0,22.6,16.2Z"/>
      <path id="Path_5519" data-name="Path 5519" class="cls-2" d="M16.4,12.4c2,.2,4.3-2.7,4.4-4.8.1-3.3-2.2-5.5-6.2-5.5A5.133,5.133,0,0,0,9.5,6.9C9.4,10.1,11.9,12.1,16.4,12.4Z"/>
      <path id="Path_5520" data-name="Path 5520" class="cls-3" d="M28.3,23.9a10.267,10.267,0,0,0-.5-2.4,7.945,7.945,0,0,0-2.1-3.8,18.109,18.109,0,0,0-5.2-4c-.8-.3-1.4-.8-.5-1.8a6.133,6.133,0,0,0,1.8-5,3.073,3.073,0,0,0-.2-2.1c-.8-2-2.5-3-4.3-3.8a7.449,7.449,0,0,0-5.1,0,4.983,4.983,0,0,0-3,2.5,5.354,5.354,0,0,0-.8,3.7c.1,1.6.1,3.2,1.5,4.3.8.7.1,1.2-.8,1.5-3.8,1.4-5.9,4.4-7.6,7.9a10.8,10.8,0,0,0-1,3.5c-.1.8.1,1.5.9,1.4,2.2-.1,4.3-.1,6.5,0,2-.1,6,.1,7.4.1,1.4-.1,11.1-.2,12.1-.2S28.3,24.9,28.3,23.9ZM9.5,6.9a5.133,5.133,0,0,1,5.1-4.8c4,0,6.3,2.2,6.2,5.5-.1,2.1-2.4,5-4.4,4.8C11.9,12.1,9.4,10.1,9.5,6.9ZM26.6,24.1c-.7,0-1.6.1-2.4.1-.9.1-12.7.3-15.4.2-2.6-.1-4.3-.2-5.9-.1s-1.2-.2-.9-1c1.3-3.7,3.2-7.2,7.4-9a12.255,12.255,0,0,1,13.2,1.9,22.7,22.7,0,0,1,3.1,3.1c1.1,1.2,1.5,4.4,1.5,4.4S26.9,24.1,26.6,24.1Z"/>
    </g>
    <path id="Path_329_1_" class="cls-1" d="M39.987,41.657c-.208-8.127,0-16.254-.521-24.381-.313-5.731-.208-5.626-5.835-5.418-.729,0-1.875.938-2.188-.208a2.947,2.947,0,0,1,.729-2.188,51.482,51.482,0,0,0,4.168-6.981c.313-.625.834-1.459-.208-1.875s-1.459.208-1.667,1.042c-.938,2.6-2.6,4.793-3.543,7.293-1.146,3.022-3.334,3.438-5.939,3.438-6.668,0-13.128-.417-19.8,0-3.438.208-5,1.354-4.584,4.689C1.645,25.195.29,33.426,1.645,41.24c-.417,2.084.208,3.855.417,5.522.1.938.521,1.459,1.459,1.459,3.855-.208,7.606.521,11.461.521,7.814,0,15.525-.834,23.235-.417,2.084.1,2.6-.834,2.188-2.6A17.945,17.945,0,0,1,39.987,41.657Zm-3.438,4.376c-7.189.1-14.483.417-21.672.625-1.146,0-2.4-.208-3.543-.208-8.648-.208-7.919.625-8.231-8.335-.208-6.877-.313-13.858-.625-20.734-.1-2.292.521-3.23,3.022-3.438,7.085-.625,14.378-.1,21.464-.313,1.354-.1,1.354.521,1.042,1.563-.729,2.188-1.771,3.438-4.376,3.126-4.9-.417-9.69.208-14.587.417-1.25.1-2.084.417-1.771,1.771.938,4.272.625,8.648,1.042,12.816v2.084c.208,6.252.625,6.877,6.877,6.772,5.939-.1,11.878-.938,17.921-.313,1.354.208,1.771-.729,1.667-1.98-.1-6.356-.834-12.711-.625-19.067.1-1.771-.521-2.917-2.6-2.709-.834.1-2.709.938-2.6-.625.1-1.459.834-3.438,2.709-3.855a38.425,38.425,0,0,1,4.9-.1c1.354,0,1.042,1.042,1.25,1.771.625,4.689.208,9.377.417,13.962a97.569,97.569,0,0,0,.521,14.587c-.1,1.667-.417,2.188-2.188,2.188ZM9.146,22.069c0-1.042.1-1.667,1.459-1.771,4.063-.417,8.127-.417,12.19-.521,2.084-.1,3.022.1,1.771,2.5-1.354,2.6-2.188,5.418-3.334,8.127-.208.625-.417,1.459-1.042,1.667-.729.208-.938-.729-1.459-1.25a15.516,15.516,0,0,1-2.917-5.105c-.208-.729-.625-1.667-1.563-1.25-1.042.417-.625,1.459-.313,2.188a11.3,11.3,0,0,0,1.875,3.022,1.438,1.438,0,0,1,.313.417c.208.208.208.313.417.521.1.208.208.313.313.521.313.417.625.834,1.042,1.354.521.313.625,1.146,1.042,1.667.521.625.625,1.667,1.771,1.667,1.459,0,.834-1.25,1.042-1.875,1.459-3.543,2.6-7.293,3.959-10.836a4.828,4.828,0,0,1,5.626-3.022c1.042.208,1.042.625,1.042,1.459-.1,5.731.834,11.357.625,17.087-.1,1.459-.521,2.188-2.084,2.084-1.98-.1-3.855,0-6.668,0-3.334-.417-7.293.417-11.253.625-1.771.1-2.4-.417-2.6-2.084-.1-1.459-.625-3.022-.625-4.584C9.876,30.2,9.251,26.132,9.146,22.069Z" transform="matrix(0.819, -0.574, 0.574, 0.819, 1261.063, 314.757)"/>
    <path id="Path_416_1_" class="cls-3" d="M31.7,20.644c-.369-.184-.246-.43-.246-.676A34.673,34.673,0,0,0,29.92,11.3c-.737-2.4-1.6-4.794-3.626-6.637a18.869,18.869,0,0,0-4.548-3.011,11.65,11.65,0,0,0-10.386.061,16.786,16.786,0,0,0-8.543,8.3C.912,14.006.912,18.247,1.65,22.488c.061.307.307.737.061.922C-.071,24.085.543,25.5.6,26.79c.123,1.229.737,1.6,1.905,1.352.369-.123.8-.123.983.246.615,1.475,2.028,1.536,3.257,1.536,2.581-.061,3.2-.123,3.134-2.7-.061-1.229-.43-2.335-.43-3.442-.061-1.414-.922-1.967-2.335-1.967a7.009,7.009,0,0,0-1.6.123c-1.229.246-1.905-.246-2.151-1.536a10.03,10.03,0,0,1,.184-2.7A14.943,14.943,0,0,1,9.025,6.2c3.81-3.38,9.71-3.2,13.767-.86,3.073,1.782,4.241,4.855,5.408,7.928a10.91,10.91,0,0,1,.983,4.609c-.061.676.86,1.659-.184,2.151a6.131,6.131,0,0,1-2.4.307c-1.721,0-2.4.737-2.52,2.458a24.879,24.879,0,0,0,.246,3.073c.123,1.967.492,2.52,2.274,3.011a3.787,3.787,0,0,0,2.028,0c.492-.061.615.061.553.43-.737,3.134-2.52,5.777-6.392,5.9-.8,0-1.782.369-2.335-.184-1.291-1.291-2.827-.86-4.3-.676a1.639,1.639,0,0,0-1.6,1.659v.184c.061,1.106.615,1.352,1.6,1.536a12.912,12.912,0,0,0,3.442-.061.55.55,0,0,0,.615-.492c.246-1.536,1.414-1.291,2.766-1.229a6.365,6.365,0,0,0,5.777-3.565c.983-1.721,1.168-3.687,1.782-5.531.184-.492.307-.922,1.045-.922,1.106,0,1.721-.615,1.475-1.721-.061-.307.123-.553.123-.8C33.362,21.873,33.178,21.381,31.7,20.644ZM18.735,37.176a9.169,9.169,0,0,0-1.291.123,5.938,5.938,0,0,1-1.475-.061.809.809,0,0,1-.8-.922v-.061a.956.956,0,0,1,.86-1.045h.061a15.664,15.664,0,0,1,2.4-.123,1.048,1.048,0,0,1,1.168.922v.123C19.78,36.623,19.411,37.053,18.735,37.176ZM2.326,27.4c-.492.123-.922.123-1.106-.492-.123-.492-.184-.983-.307-1.414a1.425,1.425,0,0,1,.246-1.106c.369-.369.615-.553.737.123l.553,2.028c.184.369.492.737-.123.86Zm27.41-.8a3.117,3.117,0,0,1-3.995,1.414c-.676-.369-.676-1.168-.8-1.782a17.363,17.363,0,0,1-.307-3.073c-.061-1.352.492-1.967,1.905-2.09.43-.061.86-.061,1.352-.123,2.212-.492,2.52-.737,2.09-3.073a31.04,31.04,0,0,0-3.073-8.973,10.814,10.814,0,0,0-7.99-5.654c-5.593-1.045-9.895.8-13.214,5.47a16.476,16.476,0,0,0-2.95,8.666,10.634,10.634,0,0,0-.123,3.687c.123.492-.123,1.352.246,1.475.922.184,1.782.8,2.766.43.615-.184,1.291-.553,1.967-.184.184.123.492.123.553.369a7.694,7.694,0,0,1,.553,5.1c-.246.737-2.09,1.168-3.319.8a2.393,2.393,0,0,1-1.536-1.352A20.245,20.245,0,0,1,1.834,19.23,20.524,20.524,0,0,1,3.739,9.7C5.214,6.693,9.148,3.743,11.3,2.514c2.212-1.229,7.5-1.475,9.71-.184a21.454,21.454,0,0,1,4.364,2.7,13.06,13.06,0,0,1,3.565,5.654,31.719,31.719,0,0,1,1.782,10.141,13.338,13.338,0,0,1-.983,5.777Zm2.458-1.721c.061.492-.369.615-.8.553-.492-.061-.369-.307-.307-.676l.369-2.581c.061-.307-.184-.737.307-.737a.786.786,0,0,1,.676.737V23.1c.123.553-.307,1.106-.246,1.782Z" transform="matrix(0.974, 0.225, -0.225, 0.974, 162.271, 466.629)"/>
    <path id="Path_388_1_" class="cls-1" d="M47.534,38.781a2.613,2.613,0,0,0,.676-.123.06.06,0,0,0,.061-.061c.061,0,.061-.061.123-.123a.461.461,0,0,0,.061-.307.874.874,0,0,0,.123-.369c.061-.737.553-1.536-.061-2.4-1.475-2.274-2.643-4.732-3.933-7.129-.676-1.352-1.659-2.643-1.782-4.179-.123-2.458-.307-4.978-.43-7.436a71.36,71.36,0,0,1,0-7.252C42.249,7.375,42.126,5.1,42,2.95,41.941,1.844,41.757,1.6,40.651,1.6c-3.995.123-7.928-.307-11.923-.369-.922-.061-1.844-.061-2.766-.061-1.905,0-3.872-.123-5.777-.184C16.744.861,13.3.8,9.86.677A2.992,2.992,0,0,1,9.123.615C8.754.615,5.558.431,4.636.492c-.983.061-1.229.676-1.045,1.536l.184,1.291c.246,2.335.43,4.609.676,6.945.246,2.889.553,5.777.676,8.6.061,1.229.307,2.458.307,3.687,0,.922.492,1.844.123,2.889-.983,2.643-2.212,5.1-3.319,7.682a12.871,12.871,0,0,1-.8,2.151,3.759,3.759,0,0,1-.307.737,1.274,1.274,0,0,0-.123.369c-.061.307-.184.615-.246.922A.226.226,0,0,0,.7,37.49,6.807,6.807,0,0,1,.58,38.658c-.123.615.123.8.553.8,2.09.061,4.179.061,6.269.123,1.721.061,3.38-.123,5.1-.123,2.09.061,4.179-.246,6.207-.307l13.152-.184c4.548-.061,9.157-.061,13.705-.246C46.244,38.781,46.858,38.781,47.534,38.781ZM5.5,14.689c-.369-2.95-.553-5.9-.86-8.911-.123-1.352-.246-2.7-.307-4.056-.061-.615.43-.737.86-.676,1.475.061,3.011.061,4.486.123,1.967.123,4.056.246,6.023.246,4.978.061,9.895.307,14.811.43,3.2.061,6.515.307,9.71.307,1.291,0,1.106.061,1.291,1.229.246,1.721,0,3.442.246,5.162a12.671,12.671,0,0,1-.061,2.643A80.517,80.517,0,0,0,42,19.79c.123,1.414.123,2.889.184,4.3.061.553-.184.615-.615.615-.983-.061-1.967,0-3.38,0-7.5.307-15.426.184-23.293.123-2.7-.061-5.408-.246-8.051-.369-.553,0-.553-.246-.676-.676-.492-2.95-.369-6.023-.676-9.1Zm-3.81,21.2c.922-2.028,1.844-4.056,2.7-6.084.553-1.291,1.168-2.52,1.6-3.872A.91.91,0,0,1,7.033,25.2h.061c2.766.123,5.531.307,8.3.369,6.33.061,12.66.123,19.052-.061,2.4-.061,4.855.123,7.252,0a1.283,1.283,0,0,1,1.352.86c1.414,2.889,3.011,5.716,4.548,8.6.123.307.492.615.369.922-.123.369-.615.123-.922.123-4.855-.061-9.772.307-14.627.184h-2.4c-.369,0-.615-.061-.737-.43-.123-.246-.184-.43-.307-.676-.8-1.844-.86-1.967-2.827-1.721a27.865,27.865,0,0,0-3.257.307,1.406,1.406,0,0,0-1.352,1.352c-.123.983-.553,1.168-1.6,1.229-2.028.061-4.179.123-6.207.184-2.09.061-4.118,0-6.146,0-.492.061-1.352.061-1.352.061H5.558c-1.106,0-2.151-.061-3.2,0-.8.061-.922-.123-.676-.615Zm25.321.307H22.275c-.492,0-.553-.123-.492-.615.369-1.291.553-1.536,1.905-1.536a24.879,24.879,0,0,0,3.073-.246,1.141,1.141,0,0,1,1.229.86c.615,1.536.676,1.536-.983,1.536Zm2.274,2.274c-1.352,0-2.7.184-4.056.184-2.335,0-4.671-.123-7.006,0-3.565.246-7.129.184-10.755.43a42.72,42.72,0,0,1-5.593-.123c-.369,0-.983.061-.676-.553.184-.492-.369-1.352.8-1.352q4.794.092,9.587,0c2.335-.061,4.671-.184,6.945-.307,1.844-.061,3.749-.061,5.593-.061H39.483a29.049,29.049,0,0,0,3.995-.246,30.7,30.7,0,0,1,4.118.061c.369,0,.43.246.369.492-.123.369.061.983-.676,1.045q-2.489,0-4.978.184c-4.364.369-8.666.123-13.029.246Zm-21.633-6.7c1.536.061,3.073.123,4.609.123,2.827.123,5.654.123,8.481.061,2.09-.061,4.118.307,6.207.246a17.837,17.837,0,0,0,3.134.123c2.212-.307,4.364-.123,6.576-.246,2.028-.123,4.056,0,6.084.061.307,0,.737.123.86-.246.123-.307-.061-.615-.307-.922A31.866,31.866,0,0,1,41.388,27.9a.754.754,0,0,0-.86-.492c-1.291-.123-2.581.184-3.872.184H26.7c-2.458,0-4.978.123-7.436,0-3.2-.184-6.392-.615-9.649-.553a1.155,1.155,0,0,0-1.352,1.045h0A10.186,10.186,0,0,1,7.095,30.73c-.43.738-.307,1.045.553,1.045ZM42.187,30.3c.246.307.615.737.492,1.106-.061.369-.615.123-.983.184H41.02c-1.414,0-1.414,0-1.721-1.536h2.274a.713.713,0,0,1,.615.246ZM39.36,28.025c1.659-.061,1.659-.061,2.335,1.414-.676.184-1.414,0-2.151.123-.737.061-.615-.615-.737-1.045-.246-.615.246-.492.553-.492Zm-.43,3.2c.061.615-.492.307-.8.369H36.287c-.983.246-.983-.615-1.106-1.168-.061-.307.123-.369.369-.369l2.458-.061c.922,0,.86.676.922,1.229ZM35.673,28.21a9.38,9.38,0,0,0,1.844-.184c.86,0,.737.737.8,1.168.061.615-.43.307-.737.307-.615,0-1.229,0-1.844.061-.737.061-.737-.492-.8-.983-.061-.553.43-.369.737-.369Zm-.922,3.011c.123.553-.43.369-.737.369H30.94c-.369,0-.8.123-.8-.553,0-.553.123-1.106.737-.922a13.892,13.892,0,0,0,3.2,0c.922-.061.615.676.676,1.106ZM30.572,28.21a19.915,19.915,0,0,0,2.7-.123c.676-.123.983.307,1.168.922.061.307.061.553-.369.553-.922-.061-1.721.307-2.458.184h-.983c-.922.123-.737-.615-.86-1.106-.061-.615.492-.43.8-.43Zm-.983,3.073c.061.492-.184.492-.615.492-1.106,0-2.212-.061-3.319-.123-.553,0-.553-.369-.553-.737-.061-.492.123-.615.553-.615a6.649,6.649,0,0,0,1.106,0H29.1c.676,0,.43.553.492.983ZM25.041,28.7c0-.369.184-.492.492-.492h3.134c.737,0,.676.492.676.922.123.615-.369.615-.676.615H26.024c-.922.184-1.106-.307-.983-1.045Zm-4.978.246c.061-.492.061-.8.676-.8h2.827c.553,0,.922,0,.86.737s-.43.922-.983.737a10.776,10.776,0,0,0-2.827-.184c-.307.123-.553.061-.553-.492Zm.246,1.106a12.42,12.42,0,0,1,3.995.307c.307.061.123.492.123.737.061.307-.184.307-.43.307h-3.5c-.369,0-.737,0-.737-.43.061-.307,0-.86.553-.922Zm-6.084-1.168c.061-.369-.061-1.045.553-.983,1.536,0,3.073.246,4.609.307.184,0,.43.123.246.307-.246.307.246.983-.492,1.045h-.86a17.156,17.156,0,0,0-3.565-.123c-.369,0-.553-.123-.492-.553Zm-.369,2.09c.123-.43.061-.983.737-1.045H15.7l3.2.184c.246,0,.615-.061.492.369-.061.307.123.922-.492.922H14.285c-.369,0-.492-.123-.43-.43ZM9.615,27.657h3.011c.615,0,1.106.061,1.106.922,0,.8-.43.86-.983.86-.983-.061-2.028-.061-3.011-.061-.43,0-.983.246-1.045-.307-.123-.676.061-1.352.922-1.414Zm-.307,2.09c1.168.061,2.335.061,3.565.123.246,0,.676,0,.553.492s-.061,1.168-.86,1.106a33.717,33.717,0,0,0-4.978-.184c.307-1.106.615-1.659,1.721-1.536ZM7.4,13.829c.123,2.766.553,5.531.737,8.3.061.553.184.922.922.86a19.472,19.472,0,0,1,3.257-.307c2.643.061,5.285.307,7.867.369,4.978.061,9.956-.061,14.934.184h3.872c.8.061,1.045-.246.983-1.045-.123-3.011-.246-5.961-.369-8.973-.061-2.95-.123-5.839-.246-8.789,0-.43-.43-.369-.553-.369h-.553c-.246,0-4.425-.184-6.7-.246C27.5,3.688,23.5,3.5,19.386,3.319c-1.475-.061-2.95,0-4.364-.061a30.121,30.121,0,0,0-7.436.123c-.8.123-.86.43-.86,1.045.307,3.2.492,6.269.676,9.4ZM9.246,3.872c.983-.184,1.905-.061,3.2-.184,4.179.43,8.666.307,13.152.492,3.2.123,6.453.307,9.71.307.922,0,1.905.184,2.95.184a.592.592,0,0,1,.676.615,37.8,37.8,0,0,1,.246,6.453,18.548,18.548,0,0,0,.246,4.118,3.978,3.978,0,0,1-.061,1.475c-.184,1.536.307,3.011.123,4.486,0,.553-.123.86-.86.86-2.335-.061-4.548.061-6.883,0-5.285-.246-10.694-.123-15.918-.43a35.6,35.6,0,0,0-6.269.061c-.492.061-.8.061-.86-.615-.123-1.6-.307-3.2-.492-4.732C7.709,13.4,7.955,9.772,7.463,6.269c-.307-2.028-.246-2.028,1.782-2.4ZM34.874,7.929c0-.246-.123-.492.307-.553.307,0,.246.307.307.492a11,11,0,0,1,.123,2.458c.061.922.061,1.844.123,2.766,0,.307-.123.553-.369.553s-.307-.246-.307-.492V11.247a19.314,19.314,0,0,0-.184-3.319Z" transform="translate(85.188 300.576) rotate(20)"/>
    <path id="Path_332_1_" class="cls-1" d="M24.561,10.569c-.463-2.025,0-2.6,2.083-2.6a3.774,3.774,0,0,0,1.389-.116c.231-.116.174-.637.174-.81V6.46c0-1.62.058-3.3.058-4.919a.519.519,0,0,0-.579-.579c-.694,0-1.447-.174-2.2-.174-1.447,0-3.935.116-4.34.174s-.463.289-.463.579a29.314,29.314,0,0,1,.058,5.96c-.058.984.694.868,1.389.752.637-.058,1.736-.116,1.794,1.678.058.984-.058,1.042-1.042.926-1.389-.116-2.835-.116-4.224-.174-1.967,0-3.993.116-6.018.116-1.852,0-1.62.231-1.678-1.62-.058-.637.231-.81.81-.868a12.651,12.651,0,0,1,2.083.174c.579,0,.694-.116.694-.694a49.264,49.264,0,0,0,.116-5.845c-.058-.463-.116-.694-.579-.694-.521,0-3.53.289-5.266.289-1.794,0-1.794,0-1.62,1.736,0,.116.058.174.116.289A19.01,19.01,0,0,1,7.49,7.618c-.058,1.447.81.926,1.157.926a2.867,2.867,0,0,0,.984-.116c.116,0,.694.116.694.984v.752c0,.405-.174.579-.579.579-1.852,0-3.588.174-5.44.289-.694.058-1.1.174-.926,1.042a5.124,5.124,0,0,1,0,1.331c0,1.5,0,1.5-1.447,1.562C.778,14.967.6,15.2.546,16.356c0,1.5-.116,3.819-.058,4.4s0,.752.231.81a1.157,1.157,0,0,0,.752.116c.463.058.868-.116,1.215,0a28.275,28.275,0,0,0,3.125.174c1.91.116,1.967.116,1.91-1.852a27.95,27.95,0,0,0-.116-4.919c-.058-.289-.058-.463-.463-.405a20.444,20.444,0,0,1-2.662-.058c-.347,0-.637-.116-.579-.579A8.76,8.76,0,0,0,4.018,12.3c0-.347.116-.521.463-.579,1.562-.116,3.125-.289,4.745-.347,2.257-.116,4.514.116,6.77-.116.405,0,1.331-.289,1.215.694-.058.637-.116,1.273-.116,1.91.058.579-.231.694-.752.694a9.285,9.285,0,0,0-1.794,0c-.579,0-.81-.116-.868.347a14.142,14.142,0,0,0-.058,2.72,35.544,35.544,0,0,0,.058,3.588.563.563,0,0,0,.637.579H16c1.736-.058,3.472-.058,5.208-.116.347,0,.521-.174.521-.694.058-.463-.058-3.356-.116-5.092-.058-.868-.405-1.562-1.447-1.562a9.285,9.285,0,0,0-1.794,0c-.347.058-.579.116-.637-.289a6.911,6.911,0,0,1,.174-2.662c.174-.521,1.215-.174,1.62-.231h1.042a79.7,79.7,0,0,1,9.085.521,1.61,1.61,0,0,1,.868,2.025.793.793,0,0,1-.752.347H28.612c-.231,0-.463,0-.463.289a10.511,10.511,0,0,0-.174,1.852c0,.81.116,3.472.116,4.166s.231.579.752.579c.463,0,3.993-.405,6.018-.289.637,0,.752-.174.81-.81a46.422,46.422,0,0,0-.174-5.671c-.058-.579-.058-.579-.405-.694a26.273,26.273,0,0,0-2.662.174c-.81,0-.926.116-1.042-.231a2.252,2.252,0,0,1-.116-1.62c.116-.405.694-.116,1.1-.174h.347c2.025.058,3.993,0,5.96-.116.926-.116,1.852-.174,2.778-.347.752-.116,1.389-.116,2.373-.231.926-.116.752,1.62.752,2.373-.058.752-1.042.868-1.447.868s-.694,0-.694.463a54.233,54.233,0,0,1,.058,6.134c0,.579.231.405.81.405a48.591,48.591,0,0,0,6.481-.289c.463-.058.637-.116.637-.579a31.518,31.518,0,0,0-.289-6.192c-.058-.463-.347-.463-.694-.463l-3.414.174c-.405,0-.637-.116-.694-.521a18.047,18.047,0,0,1-.058-1.91c.058-.752-.347-1.273-1.1-1.042-1.5.289-2.951,0-4.456.463-.868.289-1.1,0-1.1-.868.058-.637.116-1.273.116-1.91.058-.405.231-.579.579-.521a14.079,14.079,0,0,0,2.2-.174c1.042-.116,1.215-.289,1.042-1.273-.058-.174,0-.405-.058-.579-.058-1.447-.116-2.893-.231-4.4C42.211.558,41.921.5,41.343.5c-.637,0-4.109.289-6.192.521-.637.116-.752.463-.81.926a17.854,17.854,0,0,1,0,2.488v2.6a.519.519,0,0,0,.405.579h.116c.405,0,1.1-.116,1.678-.116,1.447-.058,1.5.058,1.331,1.562a2.374,2.374,0,0,0,.058.637s.116,1.042-.637,1.215a32.745,32.745,0,0,1-6.308.116c-1.967.058-3.993-.231-5.96-.347C24.908,10.974,24.677,10.974,24.561,10.569ZM21.552,7.213c-.058-.694-.058-1.62-.058-2.141s.058-1.736.058-2.662c0-.405,0-.81.347-.81s2.373-.174,3.53-.116c1.967,0,2.373.521,2.083,2.2a25.365,25.365,0,0,1-.058,2.951c-.116.521-.347.694-.81.694-.926,0-2.083.174-2.72.231a13.943,13.943,0,0,0-2.2,0,1.926,1.926,0,0,1-.174-.347ZM8.705,7.907c-.347,0-.637,0-.521-.463.231-.752-.116-1.562-.058-2.315L7.953,3.046c-.058-.463.174-.694.637-.579,1.273-.116,1.736-.116,2.315-.174.81-.058,1.62-.116,2.43-.116.637,0,.463.231.463.579a28.635,28.635,0,0,1,0,4.456c0,.463-.174.752-.579.694a39.093,39.093,0,0,0-4.514,0ZM6.159,15.545c.463.116.926.289.926,1.678v1.5c0,.579-.058,1.273,0,1.852.058.521-.174.81-.694.752a30.971,30.971,0,0,0-4.629-.174c-.405,0-.521-.521-.521-.521s-.058-2.43,0-3.646c.058-.752,0-1.331,1.273-1.331.984,0,3.183-.231,3.646-.116Zm14.93,1.5c.116,1.157.058,2.893.058,3.472s-.116.694-.637.752l-5.5.116c-.231,0-.463-.058-.463-.405.116-1.562-.231-3.067-.058-4.629.058-.81.521-.984,1.157-.926h1.389c.637,0,1.273-.058,1.91-.116,1.447.058,2.141-.058,2.141,1.736ZM33.82,14.793c.81.058,1.273.116,1.215.752a2.192,2.192,0,0,0,0,.868c-.058.984.116,1.967.058,3.009-.058.521-.058.868-.694.984s-3.125.174-3.819.174S28.9,20.7,28.9,19.712a24.758,24.758,0,0,1,.058-3.588c.116-.521.116-.868.752-.984A19.384,19.384,0,0,1,33.82,14.793Zm16.087,1.852A21.948,21.948,0,0,1,49.791,20c0,.231-.116.405-.347.405h0c-1.215.116-3.125.231-3.646.231s-1.273.116-1.562.116-.868-.058-.81-.579c0-.463-.058-.926-.058-1.389a26.385,26.385,0,0,1,.058-2.893c0-.405.116-.694.463-.694,1.562-.116,3.588-.405,4.8-.463,1.157,0,1.1.752,1.215,1.91ZM36.25,7.1c-.463,0-.984.058-1.042-.984a19.285,19.285,0,0,0,.116-3.183c-.058-.637.289-.868.868-.984,1.5-.174,3.009-.347,4.514-.579.694-.058.984.231,1.042.868V3.509a.981.981,0,0,1,0,.579c0,.174.058,1.273.058,2.141.058.463-.231.579-.579.637a11.212,11.212,0,0,1-3.935.231Z" transform="matrix(0.559, 0.829, -0.829, 0.559, 243.343, 359.627)"/>
  </g>
</svg>
