<!-- Generated by IcoMoon.io -->
<svg version="1.1" xmlns="http://www.w3.org/2000/svg" width="32" height="32" viewBox="0 0 32 32"
     fill="#93A4AA">
  <title>arrow</title>
  <path
    d="M14.064 23.6l-13.584-13.584c-0.299-0.299-0.484-0.712-0.484-1.168 0-0.912 0.74-1.652 1.652-1.652 0.456 0 0.869 0.185 1.168 0.484l12.8 12.8 13.6-12.8c0.296-0.292 0.703-0.473 1.152-0.473 0.906 0 1.641 0.734 1.641 1.641 0 0.457-0.187 0.87-0.488 1.168l-14.4 13.584c-0.288 0.284-0.684 0.459-1.121 0.459-0.13 0-0.257-0.016-0.378-0.045-0.118 0.040-0.266 0.061-0.419 0.061-0.445 0-0.848-0.182-1.138-0.475z"></path>
</svg>
